<?xml version="1.0" standalone="no"?>
<!DOCTYPE svg PUBLIC "-//W3C//DTD SVG 20010904//EN"
 "http://www.w3.org/TR/2001/REC-SVG-20010904/DTD/svg10.dtd">
<svg version="1.0" xmlns="http://www.w3.org/2000/svg"
 width="312.000000pt" height="312.000000pt" viewBox="0 0 312.000000 312.000000"
 preserveAspectRatio="xMidYMid meet">

<g transform="translate(0.000000,312.000000) scale(0.100000,-0.100000)"
fill="#000000" stroke="none">
<path d="M1405 2996 c-37 -16 -78 -63 -110 -126 -24 -47 -71 -91 -112 -104
-12 -4 -35 -21 -51 -37 -25 -26 -33 -29 -50 -20 -40 21 -75 13 -120 -29 -23
-22 -49 -40 -57 -40 -8 0 -30 -14 -49 -30 -30 -27 -34 -37 -40 -98 -3 -37 -8
-86 -12 -110 -9 -63 1 -89 62 -150 30 -31 52 -60 50 -66 -3 -6 -11 -30 -18
-54 -12 -40 -14 -42 -43 -36 -50 9 -115 -14 -156 -55 -62 -62 -75 -166 -27
-226 12 -16 22 -45 24 -71 3 -57 30 -102 77 -133 26 -17 38 -34 43 -58 7 -38
40 -68 84 -78 23 -5 30 -12 30 -29 0 -13 11 -40 25 -61 23 -33 24 -40 13 -70
-8 -25 -9 -43 -1 -69 8 -24 8 -46 0 -74 -8 -31 -7 -48 4 -78 27 -72 35 -51 35
93 l-1 137 35 23 c70 46 120 104 154 179 36 77 51 87 81 54 10 -11 36 -25 57
-32 29 -9 37 -15 33 -27 -14 -36 -16 -80 -5 -101 10 -19 18 -22 56 -17 41 4
43 3 33 -15 -6 -11 -29 -27 -50 -36 -49 -19 -45 -38 7 -34 25 2 49 13 67 30
l27 26 28 -27 c19 -18 41 -28 67 -30 54 -3 54 17 0 37 -52 20 -60 37 -12 29
23 -3 39 1 60 17 34 27 35 63 2 106 -24 31 -24 34 -7 43 10 5 36 7 58 4 27 -3
51 0 72 11 l31 16 21 -40 c30 -59 136 -178 162 -182 31 -4 50 -44 42 -90 -4
-29 -1 -45 15 -67 24 -34 26 -56 6 -91 -8 -14 -14 -31 -15 -37 0 -20 38 -15
50 6 16 30 12 123 -6 149 -9 13 -13 31 -9 42 4 11 1 37 -6 57 -10 31 -9 37 5
45 21 12 46 61 46 91 0 15 9 29 27 38 14 8 32 29 40 47 7 17 19 32 27 32 30 0
64 41 82 100 11 37 24 62 35 65 10 3 31 21 47 39 29 33 30 37 30 142 0 122
-11 155 -58 179 -24 12 -47 14 -105 9 l-75 -7 0 39 c0 22 -3 49 -6 61 -5 18 0
25 29 37 36 14 57 41 57 71 0 9 9 37 21 62 26 57 21 128 -11 150 -10 7 -22 29
-26 48 -8 42 -44 81 -85 89 -17 3 -44 20 -60 37 -26 27 -34 31 -67 26 -20 -3
-44 -8 -52 -11 -9 -4 -25 2 -36 12 -33 31 -60 42 -102 42 -33 0 -45 6 -71 35
-17 19 -38 50 -47 68 -23 45 -72 95 -116 118 -44 22 -137 25 -183 5z m188 -58
c41 -28 87 -87 87 -112 0 -41 -213 -57 -303 -22 -26 10 -47 24 -47 32 0 11 8
10 37 -6 44 -23 103 -27 103 -6 0 7 -22 19 -52 27 -46 12 -53 18 -56 41 -3 22
4 31 40 53 57 35 134 32 191 -7z m-193 -182 c69 -20 160 -20 230 0 101 28 96
28 110 -5 12 -30 14 -31 60 -25 52 7 84 -5 112 -39 15 -20 20 -21 59 -10 49
13 82 4 99 -27 6 -11 20 -20 31 -20 23 0 61 -18 71 -34 4 -6 8 -21 8 -34 0
-14 15 -37 35 -56 41 -39 44 -64 10 -104 -14 -17 -25 -43 -25 -59 0 -42 -19
-63 -65 -69 -22 -3 -54 -12 -72 -20 -32 -15 -83 -5 -83 15 0 5 -13 23 -29 39
-16 16 -31 41 -33 56 -4 39 -22 33 -26 -10 -3 -29 4 -46 37 -89 44 -59 90 -78
136 -57 34 16 60 -15 51 -60 -4 -18 -8 -49 -10 -68 -1 -19 -10 -49 -19 -67 -9
-18 -17 -43 -17 -56 0 -13 -9 -32 -20 -42 -11 -10 -20 -26 -20 -36 0 -9 -16
-27 -35 -39 -37 -23 -68 -72 -79 -127 -10 -43 -29 -57 -70 -49 -31 6 -38 3
-57 -23 -30 -40 -65 -54 -109 -41 -30 8 -39 6 -70 -15 -42 -29 -72 -31 -119
-6 -27 15 -41 16 -63 9 -39 -14 -91 -2 -127 27 -21 19 -41 25 -74 25 -57 0
-126 50 -126 92 -1 16 -12 36 -28 50 -41 35 -69 79 -78 118 -4 19 -15 51 -25
70 -17 35 -32 103 -32 149 0 33 18 48 108 87 91 39 99 46 113 99 9 32 8 42 -4
54 -12 13 -17 8 -35 -35 -24 -54 -34 -64 -69 -64 -14 0 -35 -9 -47 -21 -28
-26 -59 -18 -79 21 -8 16 -24 31 -35 35 -52 16 -77 97 -44 143 11 16 14 34 9
61 -5 32 -2 43 20 69 15 18 36 32 49 32 26 0 46 15 69 53 20 31 44 34 88 11
31 -15 31 -15 68 25 23 25 47 41 61 41 12 0 34 12 47 26 27 29 42 29 143 0z
m936 -709 c26 -31 30 -57 13 -89 -8 -15 -8 -32 1 -64 11 -38 10 -47 -4 -69
-10 -14 -29 -31 -44 -38 -36 -15 -42 -25 -42 -67 0 -47 -23 -78 -76 -100 -31
-14 -44 -25 -44 -39 0 -27 -27 -51 -57 -51 -35 0 -151 113 -136 132 6 7 13 30
17 50 7 40 46 93 74 102 21 7 72 102 72 134 0 26 45 108 66 120 7 4 41 7 75 7
54 0 64 -3 85 -28z m-1471 1 c14 -6 28 -23 32 -37 3 -14 16 -40 29 -56 13 -17
26 -51 30 -75 4 -25 15 -53 25 -63 11 -10 19 -22 19 -28 0 -6 14 -22 30 -36
22 -18 30 -33 30 -57 0 -18 5 -37 10 -42 7 -7 1 -23 -18 -50 -71 -96 -92 -107
-156 -80 -30 12 -40 27 -60 89 -3 9 -16 21 -29 26 -42 16 -67 58 -67 113 0 39
-6 57 -25 80 -49 59 -25 172 46 210 39 21 68 23 104 6z m285 -433 c17 -9 30
-24 30 -33 0 -47 -132 -197 -168 -190 -9 2 -23 15 -32 30 -15 27 -14 28 41 85
31 32 65 73 75 91 21 37 17 36 54 17z m886 -116 c24 -16 44 -34 44 -40 0 -18
-48 -59 -69 -59 -29 0 -84 52 -131 123 -50 76 -51 95 -7 99 27 3 38 -4 75 -45
24 -26 64 -61 88 -78z m-556 8 c0 -15 -36 -57 -50 -57 -4 0 -15 -3 -24 -6 -25
-9 -20 31 6 56 24 22 68 27 68 7z m108 -17 c37 -23 40 -53 6 -58 -22 -3 -48
21 -58 56 -9 28 8 29 52 2z"/>
<path d="M1460 2946 c0 -17 17 -24 47 -18 37 7 28 32 -12 32 -24 0 -35 -5 -35
-14z"/>
<path d="M1282 2248 c-17 -17 -15 -64 4 -83 22 -22 45 -16 63 17 29 51 -27
106 -67 66z"/>
<path d="M1668 2234 c-10 -21 -9 -31 3 -52 30 -54 82 -13 65 52 -9 36 -52 36
-68 0z"/>
<path d="M1446 2169 c-35 -27 -31 -57 12 -85 39 -27 27 -38 -28 -29 -32 5 -40
4 -40 -9 0 -8 6 -19 14 -23 7 -4 19 -25 26 -46 12 -39 58 -77 92 -77 22 0 78
57 78 80 0 10 12 28 26 39 37 29 22 43 -37 35 -56 -8 -62 2 -24 40 31 31 31
41 0 71 -31 32 -82 33 -119 4z m103 -158 c21 -13 -2 -61 -28 -61 -37 0 -68 51
-38 63 20 9 51 7 66 -2z"/>
<path d="M2195 2030 c-8 -14 3 -30 21 -30 8 0 14 9 14 20 0 21 -24 28 -35 10z"/>
<path d="M2255 2030 c-7 -12 2 -30 16 -30 12 0 12 27 0 35 -5 3 -12 1 -16 -5z"/>
<path d="M2293 1985 c-7 -20 2 -29 21 -22 9 4 13 13 10 22 -8 19 -23 19 -31 0z"/>
<path d="M2202 1974 c-43 -30 -18 -104 36 -104 39 0 57 73 26 104 -19 20 -34
20 -62 0z"/>
<path d="M762 1993 c2 -10 10 -18 18 -18 8 0 16 8 18 18 2 12 -3 17 -18 17
-15 0 -20 -5 -18 -17z"/>
<path d="M820 1990 c0 -13 5 -20 13 -17 6 2 12 10 12 17 0 7 -6 15 -12 18 -8
2 -13 -5 -13 -18z"/>
<path d="M715 1960 c-8 -14 3 -30 21 -30 8 0 14 9 14 20 0 21 -24 28 -35 10z"/>
<path d="M776 1944 c-19 -19 -21 -68 -3 -81 27 -21 48 -22 67 -3 25 25 26 62
2 83 -23 21 -46 22 -66 1z"/>
<path d="M464 2669 c-3 -6 12 -37 35 -70 38 -54 40 -59 23 -71 -40 -29 -33
-88 11 -88 30 0 44 11 55 40 7 20 1 35 -40 94 -26 39 -48 74 -48 78 0 20 32 5
50 -24 16 -26 20 -29 26 -15 3 10 -1 28 -10 42 -13 20 -25 25 -56 25 -21 0
-42 -5 -46 -11z m100 -158 c9 -13 -3 -39 -20 -45 -20 -8 -29 20 -14 39 14 17
26 19 34 6z"/>
<path d="M2401 1448 c-19 -47 -25 -53 -51 -54 -37 -1 -60 -20 -60 -49 0 -25
17 -35 56 -35 42 0 64 18 62 48 -4 53 12 54 139 7 24 -9 2 -30 -31 -31 -37 0
-66 -18 -66 -40 0 -40 74 -59 101 -26 22 26 64 161 53 171 -7 7 -166 61 -178
61 -2 0 -13 -24 -25 -52z m100 -4 c80 -22 79 -22 73 -37 -4 -12 -16 -12 -72 5
-76 23 -76 23 -67 37 8 13 1 14 66 -5z m-125 -86 c4 -6 -1 -17 -11 -25 -24
-17 -34 -17 -42 3 -10 26 38 47 53 22z m162 -55 c-4 -23 -58 -31 -58 -9 0 15
14 24 43 25 12 1 17 -5 15 -16z"/>
<path d="M1053 794 c-12 -31 32 -54 102 -54 35 0 75 -4 88 -9 23 -9 25 -14 20
-50 -8 -61 3 -91 32 -91 33 0 45 31 45 115 0 85 -9 91 -163 99 -104 5 -118 4
-124 -10z"/>
<path d="M2333 793 c-12 -31 32 -53 106 -53 108 0 110 -1 113 -78 3 -57 6 -67
22 -70 33 -7 46 25 46 110 0 64 -3 79 -17 86 -10 5 -73 12 -141 16 -108 5
-123 4 -129 -11z"/>
<path d="M690 770 c-12 -8 -12 -20 3 -97 10 -48 21 -119 25 -158 6 -56 11 -70
25 -73 51 -10 60 59 27 218 -22 107 -42 134 -80 110z"/>
<path d="M2002 758 c-6 -9 -7 -33 -1 -71 11 -67 7 -77 -27 -77 -20 0 -24 5
-25 33 -2 59 -13 82 -39 82 l-25 0 4 -140 c2 -77 7 -144 12 -150 19 -20 44 11
49 61 5 44 8 49 32 52 26 3 27 2 30 -55 3 -57 3 -58 33 -58 l30 0 0 151 c0
113 -3 155 -14 167 -16 20 -44 22 -59 5z"/>
<path d="M445 711 c-38 -9 -76 -20 -82 -24 -9 -6 -13 -40 -13 -112 0 -140 13
-152 156 -143 84 6 117 24 98 56 -10 14 -24 16 -92 13 l-80 -3 -7 44 c-12 79
-7 90 52 103 62 14 85 31 81 59 -4 27 -25 28 -113 7z"/>
<path d="M1730 715 c-19 -7 -50 -14 -67 -14 -39 -1 -73 -31 -72 -63 0 -13 4
-59 8 -102 11 -98 20 -106 110 -105 97 1 116 9 116 44 l0 30 -71 -3 -71 -4 -7
32 c-3 18 -6 47 -6 65 0 31 3 34 51 45 64 16 94 42 79 70 -12 23 -22 24 -70 5z"/>
<path d="M1010 572 c-17 -6 -11 -49 8 -57 9 -4 50 -9 90 -12 l72 -6 0 -38 0
-39 -45 0 c-34 0 -47 -5 -55 -19 -19 -36 11 -51 106 -51 79 0 101 -8 72 -27
-7 -4 -51 -16 -98 -25 -90 -19 -120 -39 -120 -82 0 -50 66 -85 184 -96 97 -9
118 -5 114 23 -3 18 -14 23 -78 33 -94 15 -148 34 -129 44 8 4 48 15 90 25 92
20 119 41 119 93 0 51 -18 72 -66 79 -39 5 -39 5 -36 44 l4 39 62 1 c83 1 110
10 114 37 2 12 -3 24 -10 27 -15 5 -384 12 -398 7z"/>
<path d="M2293 565 c-14 -11 -16 -18 -7 -32 14 -22 44 -31 118 -32 l59 -1 -7
-31 c-3 -17 -6 -35 -6 -40 0 -5 -13 -9 -29 -9 -41 0 -61 -9 -61 -29 0 -33 22
-41 107 -41 67 0 83 -3 83 -15 0 -8 -10 -17 -22 -19 -164 -34 -164 -34 -183
-52 -21 -22 -19 -77 4 -98 45 -41 251 -68 271 -35 15 23 -9 35 -87 48 -136 21
-154 41 -55 61 129 26 160 49 148 115 -8 40 -38 65 -78 65 -29 0 -34 12 -22
58 6 19 13 22 58 23 87 2 111 11 111 39 l0 25 -175 2 c-96 1 -183 4 -192 6 -9
3 -25 -1 -35 -8z"/>
<path d="M620 383 c-8 -3 -27 -17 -42 -31 -22 -20 -28 -35 -28 -67 0 -71 67
-111 144 -85 70 23 88 95 39 150 -28 31 -81 46 -113 33z m51 -63 c26 -15 24
-49 -3 -59 -39 -15 -65 28 -36 57 15 15 15 15 39 2z"/>
<path d="M1854 346 c-44 -44 -46 -86 -5 -127 52 -52 157 -33 180 33 24 69 -24
128 -105 128 -28 0 -44 -8 -70 -34z m106 -45 c7 -15 6 -24 -6 -36 -31 -31 -82
6 -55 39 18 22 48 20 61 -3z"/>
</g>
</svg>
